<svg width="2776" height="157" viewBox="0 0 2776 157" fill="none" xmlns="http://www.w3.org/2000/svg">
<path d="M117.391 80.8822L150.971 157H188.744L221.95 80.882L222.784 6.00018H117.391V80.8822Z" fill="white"/>
<path d="M0 6.00018V82.24L51.973 157H116.966L117.391 80.8822L66.6808 6.00018H0Z" fill="white"/>
<path d="M339.341 5.99999V82.2398L287.368 157H222.376L221.95 80.882L272.661 5.99999H339.341Z" fill="white"/>
<path d="M495.401 146.246V4.06239H550.649C579.289 4.06239 599.398 23.3588 599.398 49.155C599.398 75.1543 579.289 94.4506 550.649 94.4506H515.51V146.246H495.401ZM515.51 78.4042H548.821C566.493 78.4042 578.883 66.217 578.883 49.155C578.883 32.0929 566.493 20.1088 548.821 20.1088H515.51V78.4042Z" fill="white"/>
<path d="M690.424 150.309C648.988 150.309 618.723 118.825 618.723 75.1543C618.723 31.4836 648.988 0 690.424 0C731.861 0 762.329 31.4836 762.329 75.1543C762.329 118.825 731.861 150.309 690.424 150.309ZM639.035 75.1543C639.035 108.263 660.769 132.434 690.424 132.434C720.283 132.434 741.813 108.263 741.813 75.1543C741.813 41.8427 720.283 17.6714 690.424 17.6714C660.769 17.6714 639.035 41.8427 639.035 75.1543Z" fill="white"/>
<path d="M838.794 149.699C805.685 149.699 782.936 130.2 782.936 101.56L802.435 100.341C802.638 120.247 817.669 133.856 838.997 133.856C858.699 133.856 872.511 123.903 872.511 108.872C872.511 96.0756 864.59 89.3727 846.715 85.5134L828.028 82.0603C800.404 77.3886 787.811 61.9515 787.811 42.452C787.811 17.2652 807.919 0.609363 837.372 0.609363C867.637 0.609363 888.355 19.9057 888.355 47.1238L868.449 48.1394C868.246 28.843 855.449 16.2496 836.762 16.2496C819.7 16.2496 807.716 25.9993 807.716 40.4208C807.716 51.9986 815.435 59.9203 829.856 62.9671L848.543 66.4201C879.214 71.7012 892.62 86.1227 892.62 107.653C892.62 132.637 870.48 149.699 838.794 149.699Z" fill="white"/>
<path d="M916.12 146.246V4.06239H1010.77V19.9057H936.229V66.217H1004.88V81.2479H936.229V130.2H1011.99V146.246H916.12Z" fill="white"/>
<path d="M1035.95 146.246V4.06239H1055.86V146.246H1035.95Z" fill="white"/>
<path d="M1084.13 146.246V4.06239H1136.94C1179.8 4.06239 1208.44 32.4992 1208.44 75.1543C1208.44 117.809 1179.8 146.246 1136.94 146.246H1084.13ZM1104.04 130.2H1136.54C1167.41 130.2 1187.92 108.263 1187.92 75.1543C1187.92 42.0458 1167.41 20.1088 1136.54 20.1088H1104.04V130.2Z" fill="white"/>
<path d="M1302.36 150.309C1260.93 150.309 1230.66 118.825 1230.66 75.1543C1230.66 31.4836 1260.93 0 1302.36 0C1343.8 0 1374.27 31.4836 1374.27 75.1543C1374.27 118.825 1343.8 150.309 1302.36 150.309ZM1250.97 75.1543C1250.97 108.263 1272.71 132.434 1302.36 132.434C1332.22 132.434 1353.75 108.263 1353.75 75.1543C1353.75 41.8427 1332.22 17.6714 1302.36 17.6714C1272.71 17.6714 1250.97 41.8427 1250.97 75.1543Z" fill="white"/>
<path d="M1398.93 146.246V4.06239H1419.64L1497.24 117.2L1496.22 4.06239H1515.92V146.246H1495.2L1417.61 33.1085L1418.63 146.246H1398.93Z" fill="white"/>
<path d="M1576.07 146.246L1630.92 4.06239H1656.71L1711.35 146.246H1690.63L1675.4 106.232H1611.01L1595.78 146.246H1576.07ZM1616.9 90.5914H1669.51L1643.31 21.5307L1616.9 90.5914Z" fill="white"/>
<path d="M1730.78 146.246V4.06239H1825.43V19.9057H1750.89V66.217H1819.54V81.2479H1750.89V130.2H1826.65V146.246H1730.78Z" fill="white"/>
<path d="M1849.6 146.246V4.06239H1907.89C1936.74 4.06239 1955.83 19.9057 1955.83 43.2645C1955.83 63.5765 1941.61 77.3886 1921.1 79.4198C1939.78 80.6385 1949.53 90.7945 1951.16 108.872L1953.6 132.231C1954 138.528 1955.02 142.59 1956.44 146.246H1936.13C1935.11 143.199 1934.1 138.934 1933.49 133.856L1931.25 110.497C1929.83 95.8725 1921.91 88.5602 1905.05 88.5602H1869.5V146.246H1849.6ZM1869.5 72.7168H1906.88C1923.74 72.7168 1935.52 62.764 1935.52 46.7175C1935.52 30.8742 1923.74 20.1088 1906.88 20.1088H1869.5V72.7168Z" fill="white"/>
<path d="M2050.18 150.309C2008.74 150.309 1978.47 118.825 1978.47 75.1543C1978.47 31.4836 2008.74 0 2050.18 0C2091.61 0 2122.08 31.4836 2122.08 75.1543C2122.08 118.825 2091.61 150.309 2050.18 150.309ZM1998.79 75.1543C1998.79 108.263 2020.52 132.434 2050.18 132.434C2080.03 132.434 2101.56 108.263 2101.56 75.1543C2101.56 41.8427 2080.03 17.6714 2050.18 17.6714C2020.52 17.6714 1998.79 41.8427 1998.79 75.1543Z" fill="white"/>
<path d="M2198.55 149.699C2165.44 149.699 2142.69 130.2 2142.69 101.56L2162.19 100.341C2162.39 120.247 2177.42 133.856 2198.75 133.856C2218.45 133.856 2232.26 123.903 2232.26 108.872C2232.26 96.0756 2224.34 89.3727 2206.47 85.5134L2187.78 82.0603C2160.16 77.3886 2147.56 61.9515 2147.56 42.452C2147.56 17.2652 2167.67 0.609363 2197.12 0.609363C2227.39 0.609363 2248.11 19.9057 2248.11 47.1238L2228.2 48.1394C2228 28.843 2215.2 16.2496 2196.51 16.2496C2179.45 16.2496 2167.47 25.9993 2167.47 40.4208C2167.47 51.9986 2175.19 59.9203 2189.61 62.9671L2208.29 66.4201C2238.97 71.7012 2252.37 86.1227 2252.37 107.653C2252.37 132.637 2230.23 149.699 2198.55 149.699Z" fill="white"/>
<path d="M2275.87 146.246V4.06239H2331.12C2359.76 4.06239 2379.87 23.3588 2379.87 49.155C2379.87 75.1543 2359.76 94.4506 2331.12 94.4506H2295.98V146.246H2275.87ZM2295.98 78.4042H2329.29C2346.96 78.4042 2359.35 66.217 2359.35 49.155C2359.35 32.0929 2346.96 20.1088 2329.29 20.1088H2295.98V78.4042Z" fill="white"/>
<path d="M2375.46 146.246L2430.3 4.06239H2456.1L2510.74 146.246H2490.02L2474.79 106.232H2410.4L2395.16 146.246H2375.46ZM2416.29 90.5914H2468.9L2442.69 21.5307L2416.29 90.5914Z" fill="white"/>
<path d="M2590.31 150.309C2548.67 150.309 2518.41 118.622 2518.41 75.1543C2518.41 31.6867 2548.67 0 2590.31 0C2625.66 0 2653.69 23.1556 2656.53 54.8423L2636.62 56.4673C2633.78 33.921 2614.28 17.6714 2590.31 17.6714C2560.45 17.6714 2538.72 42.0458 2538.72 75.1543C2538.72 108.263 2560.45 132.434 2590.31 132.434C2614.48 132.434 2634.39 115.372 2637.23 91.8101L2656.94 93.435C2654.09 126.34 2625.86 150.309 2590.31 150.309Z" fill="white"/>
<path d="M2680.13 146.246V4.06239H2774.78V19.9057H2700.24V66.217H2768.89V81.2479H2700.24V130.2H2776V146.246H2680.13Z" fill="white"/>
</svg>
